<svg t="1773754528196" class="icon" viewBox="0 0 1024 1024" version="1.1" xmlns="http://www.w3.org/2000/svg" p-id="6873" width="128" height="128"><path d="M960.563651 1024a63.948759 63.948759 0 0 1-46.116894-19.676541L603.413931 683.247398a64.256205 64.256205 0 1 1 92.233787-89.364292l311.135308 321.178543a64.358687 64.358687 0 0 1-46.219375 108.938351z" fill="#14CC83" p-id="6874"></path><path d="M465.678143 465.678143m-465.678143 0a465.678143 465.678143 0 1 0 931.356285 0 465.678143 465.678143 0 1 0-931.356285 0Z" fill="#14CC83" p-id="6875"></path><path d="M465.678143 465.678143m-353.357887 0a353.357886 353.357886 0 1 0 706.715773 0 353.357886 353.357886 0 1 0-706.715773 0Z" fill="#FFFFFF" p-id="6876"></path><path d="M357.559648 307.445957m-86.69976 0a86.69976 86.69976 0 1 0 173.39952 0 86.69976 86.69976 0 1 0-173.39952 0Z" fill="#4077E5" p-id="6877"></path><path d="M357.559648 448.563651L115.497198 638.565252l117.546837 81.165733 222.693355 81.780624 261.841473-115.08727 93.361089-214.187349-228.1249-105.249-89.056845 165.200961-136.198559-83.6253z" fill="#4077E5" p-id="6878"></path></svg>